<svg width="70" height="70" viewBox="0 0 70 70" fill="none" xmlns="http://www.w3.org/2000/svg">
<path d="M0 0H70V70H0V0Z" fill="#171717"/>
<path d="M38.2036 55.0969H47.5369V42.0303H40.0703C39.0747 42.0303 38.2036 41.6569 37.4569 40.9103C36.7103 40.1636 36.3369 39.2925 36.3369 38.2969C36.3369 37.3014 36.7103 36.4303 37.4569 35.6836C38.2036 34.9369 39.0747 34.5636 40.0703 34.5636H47.5369V21.4969H38.7333H38.2036C35.714 21.4969 33.4064 21.9699 31.2807 22.9157C29.4748 23.7193 27.8002 24.8641 26.2569 26.3503C23.0214 29.5858 21.4036 33.568 21.4036 38.2969C21.4036 42.9014 23.0214 46.8836 26.2569 50.2436C29.6169 53.4792 33.5991 55.0969 38.2036 55.0969Z" fill="#005BC2"/>
<path d="M51.8 24.4533V15.12H38.7333V21.4969V22.5867C38.7333 23.5822 38.36 24.4533 37.6133 25.2C36.8667 25.9467 35.9956 26.32 35 26.32C34.0044 26.32 33.1333 25.9467 32.3867 25.2C31.7234 24.5368 31.3548 23.7753 31.2807 22.9157C31.2713 22.8076 31.2667 22.6979 31.2667 22.5867V15.12H18.2V24.4533C18.2 29.0578 19.8178 33.04 23.0533 36.4C26.2889 39.6356 30.2711 41.2533 35 41.2533C39.6044 41.2533 43.5867 39.6356 46.9467 36.4C50.1822 33.04 51.8 29.0578 51.8 24.4533Z" fill="#005BC2"/>
</svg>
